<?xml version="1.0" standalone="no"?><!DOCTYPE svg PUBLIC "-//W3C//DTD SVG 1.1//EN" "http://www.w3.org/Graphics/SVG/1.1/DTD/svg11.dtd"><svg t="1605366056894" class="icon" viewBox="0 0 1024 1024" version="1.1" xmlns="http://www.w3.org/2000/svg" p-id="2870" xmlns:xlink="http://www.w3.org/1999/xlink" width="200" height="200"><defs><style type="text/css"></style></defs><path d="M771.86844445 296.61866667c14.22222222-13.53955555 36.63644445-13.08444445 50.28977777 1.024 13.53955555 14.22222222 13.08444445 36.63644445-1.024 50.28977778L400.72533333 750.93333333 202.86577778 561.37955555c-14.22222222-13.53955555-14.67733333-36.06755555-1.024-50.28977777 13.53955555-14.22222222 36.06755555-14.67733333 50.28977777-1.024l148.59377778 142.336 371.14311112-355.78311111z" fill="#e6e6e6" p-id="2871"></path><path d="M512 1021.72444445C230.51377778 1021.72444445 2.27555555 793.48622222 2.27555555 512S230.51377778 2.27555555 512 2.27555555s509.72444445 228.23822222 509.72444445 509.72444445-228.23822222 509.72444445-509.72444445 509.72444445z m0-71.11111112c242.23288889 0 438.61333333-196.38044445 438.61333333-438.61333333S754.23288889 73.38666667 512 73.38666667 73.38666667 269.76711111 73.38666667 512 269.76711111 950.61333333 512 950.61333333z" fill="#e6e6e6" p-id="2872"></path></svg>